#!OML:ASF I:\Random Stuff\random\construction\7_22_03\Session 2\subj1.ASF
:FULLY-SPECIFIED
:DEGREES
538
root 4.21884 17.801 -12.4295 40.6883 -7.89727 -10.3313
lowerback 42.692 -4.8211 -5.52352
upperback 13.5731 -8.79678 -8.78475
thorax -5.61193 -3.91234 -3.04703
lowerneck -15.7119 -4.43846 -14.6519
upperneck 28.3169 -4.11425 7.07533
head 12.4864 -2.50375 4.58329
rclavicle -2.54444e-014 -6.75868e-015
rhumerus -16.5278 22.8125 -61.3582
rradius 128.922
rwrist -5.07468
rhand -49.875 26.0702
rfingers 7.12502
rthumb -22.4691 -2.6427
lclavicle -2.54444e-014 -6.75868e-015
lhumerus 30.537 -54.2634 44.7496
lradius 115.169
lwrist 50.2368
lhand -29.0215 -465.067
lfingers 7.12502
lthumb -182.372 -315.033
rfemur -61.6116 -5.7134 38.2426
rtibia 29.8754
rfoot -9.18807 9.02839
rtoes -57.5375
lfemur -58.5217 12.1605 3.13216
ltibia 38.3361
lfoot -14.198 4.77119
ltoes -62.6353
539
root 4.21376 17.7846 -12.4414 40.7609 -7.75222 -10.4454
lowerback 42.8031 -4.87478 -5.47893
upperback 13.6275 -8.86283 -8.96098
thorax -5.62568 -3.93311 -3.22569
lowerneck -15.8164 -4.68985 -14.5454
upperneck 28.4409 -4.50062 7.14674
head 12.6093 -2.65409 4.53602
rclavicle 1.81292e-013 -7.95139e-015
rhumerus -16.7531 22.6507 -61.4662
rradius 128.973
rwrist -5.24724
rhand -50.1108 26.1959
rfingers 7.12502
rthumb -22.6954 -2.48946
lclavicle 1.81292e-013 -7.95139e-015
lhumerus 31.6706 -54.679 44.538
lradius 114.772
lwrist 50.8952
lhand -30.1065 -464.78
lfingers 7.12502
lthumb -183.42 -314.732
rfemur -61.9457 -6.47662 39.2961
rtibia 30.0173
rfoot -9.45156 10.162
rtoes -57.3716
lfemur -58.6997 12.1223 3.39523
ltibia 38.4634
lfoot -14.316 4.77684
ltoes -62.6739
540
root 4.20497 17.7782 -12.4574 40.8536 -7.56998 -10.5031
lowerback 42.908 -5.00963 -5.44842
upperback 13.6755 -9.03071 -9.17299
thorax -5.65478 -3.99818 -3.39377
lowerneck -15.8448 -4.8847 -13.8848
upperneck 28.3183 -4.82811 6.73255
head 12.5763 -2.77174 4.20275
rclavicle 1.59028e-014 2.5842e-014
rhumerus -16.8967 22.5537 -61.6986
rradius 129.035
rwrist -5.45907
rhand -50.209 26.4789
rfingers 7.12502
rthumb -22.7897 -2.19489
lclavicle 1.59028e-014 2.5842e-014
lhumerus 32.2924 -54.6792 44.6454
lradius 114.276
lwrist 50.3769
lhand -29.7994 -464.893
lfingers 7.12502
lthumb -183.124 -314.85
rfemur -62.1452 -6.46439 39.4986
rtibia 30.1372
rfoot -9.47666 10.0894
rtoes -57.3989
lfemur -58.9009 12.0677 3.62851
ltibia 38.5324
lfoot -14.4089 4.74703
ltoes -62.6828
541
root 4.19936 17.7794 -12.4692 40.6654 -7.28565 -10.3988
lowerback 43.3278 -4.99119 -5.29574
upperback 13.7 -8.96458 -9.10032
thorax -5.75073 -3.95619 -3.40283
lowerneck -15.5683 -5.26126 -14.0531
upperneck 28.2654 -5.29592 6.60726
head 12.5648 -3.00686 4.10745
rclavicle 3.18055e-014 6.0033e-014
rhumerus -17.3816 22.03 -61.4478
rradius 129.18
rwrist -5.76125
rhand -50.3286 26.952
rfingers 7.12502
rthumb -22.9044 -1.70759
lclavicle 3.18055e-014 6.0033e-014
lhumerus 33.251 -54.9893 44.9646
lradius 114.122
lwrist 50.3146
lhand -29.7454 -464.555
lfingers 7.12502
lthumb -183.072 -314.513
rfemur -62.0959 -6.65631 39.4685
rtibia 30.2188
rfoot -9.38513 9.93603
rtoes -57.2452
lfemur -58.8663 11.5979 3.86921
ltibia 38.5295
lfoot -14.3865 4.94229
ltoes -62.6247
542
root 4.1856 17.7844 -12.4779 40.4019 -7.17776 -10.3933
lowerback 44.0105 -4.97297 -5.99825
upperback 13.645 -9.26792 -9.17173
thorax -5.91702 -4.08385 -2.98495
lowerneck -16.0781 -4.95752 -13.2765
upperneck 28.0476 -4.94936 6.34577
head 12.4981 -2.79631 3.91807
rclavicle 1.78111e-013 5.84427e-014
rhumerus -17.0656 22.4724 -61.735
rradius 129.116
rwrist -5.96875
rhand -50.5347 27.2939
rfingers 7.12502
rthumb -23.1022 -1.34107
lclavicle 1.78111e-013 5.84427e-014
lhumerus 32.6695 -54.3277 45.7361
lradius 114.137
lwrist 50.1982
lhand -29.2375 -464.116
lfingers 7.12502
lthumb -182.581 -314.08
rfemur -61.8386 -6.65748 39.4011
rtibia 30.2589
rfoot -9.32859 9.74656
rtoes -57.1281
lfemur -58.6196 11.5013 3.96838
ltibia 38.4718
lfoot -14.29 4.93243
ltoes -62.6262
543
root 4.17209 17.7878 -12.4857 40.1377 -7.09357 -10.3683
lowerback 44.5105 -4.83316 -6.13928
upperback 13.651 -9.19989 -9.19457
thorax -6.02467 -4.04135 -2.95068
lowerneck -16.1075 -5.03001 -13.31
upperneck 27.6864 -5.13734 6.70875
head 12.3906 -2.82894 4.02579
rclavicle 1.90833e-014 2.38542e-014
rhumerus -17.4622 22.1026 -61.7771
rradius 129.149
rwrist -6.13984
rhand -50.5749 27.7038
rfingers 7.12502
rthumb -23.1408 -0.926382
lclavicle 1.90833e-014 2.38542e-014
lhumerus 33.2162 -54.4178 45.9678
lradius 114.242
lwrist 50.3116
lhand -29.2901 -464.621
lfingers 7.12502
lthumb -182.632 -314.585
rfemur -61.5778 -6.63468 39.2843
rtibia 30.3088
rfoot -9.35672 9.46768
rtoes -57.2064
lfemur -58.3723 11.3921 4.04001
ltibia 38.421
lfoot -14.2815 4.91415
ltoes -62.6627
